<?xml version="1.0" standalone="no"?>
<!DOCTYPE svg PUBLIC "-//W3C//DTD SVG 20010904//EN"
 "http://www.w3.org/TR/2001/REC-SVG-20010904/DTD/svg10.dtd">
<svg version="1.0" xmlns="http://www.w3.org/2000/svg"
 width="960.000000pt" height="960.000000pt" viewBox="0 0 960.000000 960.000000"
 preserveAspectRatio="xMidYMid meet">
<metadata>
Created by potrace 1.14, written by Peter Selinger 2001-2017
</metadata>
<g transform="translate(0.000000,960.000000) scale(0.100000,-0.100000)"
fill="#000000" stroke="none">
<path d="M0 4800 l0 -2640 4800 0 4800 0 0 2640 0 2640 -4800 0 -4800 0 0
-2640z m3628 1286 c384 -62 626 -232 785 -551 37 -76 91 -224 84 -232 -5 -4
-828 -153 -845 -153 -4 0 -18 26 -31 57 -75 171 -217 260 -437 270 -204 10
-335 -37 -465 -166 -88 -88 -136 -177 -169 -311 -59 -250 -49 -599 26 -822 89
-267 323 -411 644 -395 147 7 255 38 418 118 l122 60 0 140 0 139 -295 0 -295
0 0 295 0 295 685 0 685 0 -2 -612 -3 -613 -139 -87 c-421 -263 -702 -350
-1176 -365 -711 -22 -1160 196 -1420 688 -232 442 -237 1109 -11 1553 68 133
147 240 255 344 216 208 446 312 796 357 148 20 646 13 788 -9z m3192 -5 c593
-112 965 -485 1073 -1076 19 -102 22 -156 22 -365 -1 -279 -19 -420 -80 -606
-133 -406 -426 -692 -831 -812 -177 -53 -292 -67 -549 -67 -312 1 -490 30
-712 116 -315 123 -587 420 -703 767 -94 282 -114 679 -49 996 108 534 460
904 979 1028 164 39 263 47 505 44 182 -3 254 -8 345 -25z"/>
<path d="M6305 5430 c-167 -34 -308 -146 -380 -301 -73 -161 -103 -446 -74
-705 24 -216 75 -342 183 -450 113 -112 224 -155 406 -156 348 -1 533 189 581
596 18 152 7 471 -20 571 -64 241 -213 395 -426 440 -75 16 -204 18 -270 5z"/>
</g>
</svg>
