<?xml version="1.0" standalone="no"?>
<!DOCTYPE svg PUBLIC "-//W3C//DTD SVG 20010904//EN"
 "http://www.w3.org/TR/2001/REC-SVG-20010904/DTD/svg10.dtd">
<svg version="1.0" xmlns="http://www.w3.org/2000/svg"
 width="480.000000pt" height="480.000000pt" viewBox="0 0 480.000000 480.000000"
 preserveAspectRatio="xMidYMid meet">
<metadata>
Created by potrace 1.14, written by Peter Selinger 2001-2017
</metadata>
<g transform="translate(0.000000,480.000000) scale(0.100000,-0.100000)"
fill="#000000" stroke="none">
<path d="M2760 3700 c0 -20 7 -20 1000 -20 l1000 0 0 -620 c0 -613 0 -620 20
-620 20 0 20 7 20 640 l0 640 -1020 0 c-1013 0 -1020 0 -1020 -20z"/>
<path d="M1488 3054 c-2 -1 -34 -5 -71 -9 -235 -23 -426 -152 -523 -351 -59
-124 -77 -208 -77 -379 0 -123 4 -164 22 -230 104 -385 389 -547 877 -501 99
9 120 13 209 42 82 27 208 89 296 146 l49 33 0 305 0 306 -340 0 c-300 0 -340
-2 -341 -15 0 -9 -2 -76 -2 -149 l-2 -132 55 -1 c30 0 98 0 150 0 l95 1 -2
-67 c-2 -78 -2 -78 -112 -124 -180 -75 -361 -40 -445 86 -48 71 -66 144 -70
284 -9 281 106 439 319 439 113 0 179 -36 231 -124 24 -41 26 -42 62 -33 20 4
51 10 67 13 17 3 82 15 145 27 63 12 124 22 135 24 11 1 24 3 28 4 29 4 -65
182 -131 250 -81 83 -180 128 -321 147 -44 6 -298 13 -303 8z"/>
<path d="M3137 3054 c-1 -1 -30 -5 -65 -8 -131 -14 -282 -79 -374 -162 -169
-151 -247 -406 -214 -699 26 -234 155 -433 337 -526 156 -79 413 -105 624 -64
159 31 316 138 405 276 43 67 88 196 98 283 9 82 8 278 -2 346 -44 296 -263
504 -576 546 -43 6 -228 13 -233 8z m192 -352 c26 -9 63 -34 91 -62 69 -69 93
-148 94 -300 1 -203 -23 -291 -99 -365 -70 -69 -219 -88 -321 -41 -74 34 -118
85 -146 171 -20 60 -23 91 -23 210 0 204 28 280 130 357 27 20 51 35 54 34 3
-2 15 0 26 5 31 13 145 7 194 -9z"/>
<path d="M0 1720 l0 -640 1020 0 c1013 0 1020 0 1020 20 0 20 -7 20 -1000 20
l-1000 0 0 620 c0 613 0 620 -20 620 -20 0 -20 -7 -20 -640z"/>
</g>
</svg>
